<svg width="71" height="76" viewBox="0 0 71 76" fill="none" xmlns="http://www.w3.org/2000/svg">
<rect width="71" height="76" fill="#E5E5E5"/>
<rect x="-307" y="-947" width="375" height="1134" fill="white"/>
<g clip-path="url(#clip0_6_3)">
<path fill-rule="evenodd" clip-rule="evenodd" d="M-307 -38H71V105H-307V-38Z" fill="#005CEE"/>
<mask id="mask0_6_3" style="mask-type:alpha" maskUnits="userSpaceOnUse" x="-307" y="-38" width="378" height="143">
<path fill-rule="evenodd" clip-rule="evenodd" d="M-307 -38H71V105H-307V-38Z" fill="#005CEE"/>
</mask>
<g mask="url(#mask0_6_3)">
<path opacity="0.1" d="M-218.247 114.92C-296.907 110.252 -354.324 140.455 -368 154.172L-357.743 166.201H-329.707H60.7448L75.1046 -11.6994C79.6633 -31.5364 43.868 -72.3639 41.5983 -52.8507C36.8116 -11.6994 6.72427 50.3442 -29.5173 73.1357C-60.339 92.5187 -111.574 121.251 -218.247 114.92Z" fill="#10284E"/>
</g>
<path d="M92.1737 51.4326C91.3998 44.4847 72.2716 43.0276 63.9921 42.7222V32.0808C71.316 30.8546 78.106 28.5604 78.106 24.2697V19.0254C78.106 17.932 77.3018 17.0457 76.3097 17.0457C75.3176 17.0457 74.5134 17.932 74.5134 19.0254L74.5267 24.1713C74.2342 24.9632 70.6344 27.0751 62.3364 28.4009C62.2913 28.4009 62.2482 28.3851 62.202 28.3851C61.9672 28.3849 61.7345 28.434 61.5163 28.5299C56.4223 29.2368 51.2914 29.5716 46.1573 29.5322C26.0992 29.5322 18.2283 25.3534 17.8012 24.2697V14.4643C25.9298 18.9394 45.1309 19.0073 46.1573 19.0073C47.462 19.0073 78.106 18.9032 78.106 9.78667C78.106 0.670144 47.462 0.564942 46.1573 0.564942C44.7921 0.564942 43.4495 0.586058 42.1295 0.62829C41.1374 0.659528 40.3561 1.57117 40.3845 2.66449C40.4128 3.75782 41.24 4.61881 42.2321 4.58757C43.5166 4.54534 44.8246 4.5246 46.1563 4.52535C65.693 4.52535 73.6656 8.48463 74.4765 9.7878C73.6666 11.0842 65.694 15.048 46.1573 15.048C26.6206 15.048 18.6481 11.0864 17.8382 9.78667C18.2344 9.16676 20.5429 7.48124 27.3227 6.14074C27.9555 6.01711 28.4801 5.53037 28.6985 4.86431C28.9169 4.19825 28.7959 3.45434 28.381 2.91348C27.9661 2.37262 27.3207 2.1172 26.6884 2.24368C18.2909 3.90431 14.2086 6.37151 14.2086 9.78667V22.5695C4.84725 24.1724 0.0947266 26.807 0.0947266 30.4111V44.8908C0.0947266 51.5163 16.6095 53.3534 23.7096 53.8353H23.8225C24.4642 53.8568 25.0676 53.4992 25.4053 52.8974C25.7431 52.2957 25.7638 51.541 25.4597 50.9178C25.1557 50.2946 24.5731 49.8975 23.9313 49.8761C9.83691 48.9179 4.12053 45.979 3.68736 44.8828V35.0921C11.8159 39.5672 31.0159 39.6351 32.0434 39.6351C33.0709 39.6351 52.2709 39.5672 60.3995 35.0921V42.6442H60.2712C58.9881 42.6442 29.3356 42.7573 28.3687 51.4338C28.3387 51.5755 28.3233 51.7204 28.3225 51.8659V66.3478C28.3225 75.4643 58.9666 75.5695 60.2712 75.5695C61.5758 75.5695 92.2199 75.4643 92.2199 66.3478V51.8681C92.2199 51.7215 92.2039 51.5754 92.1737 51.4326ZM3.93328 29.2343C4.36513 28.6323 7.03279 27.0435 14.8817 25.8912C19.2798 31.7601 44.3819 31.8376 45.5486 31.8376C45.9624 31.8376 49.392 31.8261 53.8344 31.5505C49.4464 32.655 42.3182 33.6838 31.707 33.6838C12.5473 33.6858 4.72552 30.333 3.93328 29.2343ZM61.023 71.6732C41.0041 71.6732 33.1486 67.4416 32.7224 66.3442V56.4149C40.8351 60.9466 59.9975 61.0164 61.023 61.0164C62.5382 61.0164 64.0533 60.989 65.5306 60.9351C66.5207 60.8994 67.2975 59.9729 67.2655 58.8657C67.2335 57.7586 66.405 56.8901 65.4148 56.9258C63.9806 56.9785 62.5033 57.0048 61.0271 57.0048C41.5286 57.0048 33.5717 52.9955 32.7623 51.6759C33.5686 50.3608 41.5286 46.347 61.0271 46.347C80.4805 46.347 88.4487 50.3425 89.2857 51.6667C89.004 52.0688 87.4519 53.7378 80.5512 55.2178C79.5786 55.426 78.941 56.4763 79.1272 57.5639C79.3133 58.6514 80.2527 59.3643 81.2253 59.1561C84.0211 58.6483 86.7461 57.7365 89.3318 56.4435L89.341 66.2446C88.6218 68.1931 78.5494 71.6732 61.023 71.6732ZM74.9395 58.7548C75.0153 59.7877 74.4609 60.7087 73.7011 60.8121C73.3439 60.8615 72.9817 60.9077 72.6144 60.9507C72.5741 60.9507 72.5354 60.9582 72.4935 60.9582C71.7515 60.9601 71.1406 60.1656 71.1091 59.1577C71.0777 58.1499 71.637 57.2879 72.3765 57.2045C72.7306 57.1626 73.0815 57.1175 73.4261 57.0713C73.791 57.0215 74.1556 57.171 74.4394 57.4867C74.7233 57.8025 74.9032 58.2586 74.9395 58.7548ZM34.6475 2.71534C34.5736 1.66374 35.2076 0.737533 36.0638 0.646199L36.8026 0.570857C37.6594 0.488543 38.4084 1.27487 38.4754 2.32717C38.5424 3.37947 37.9022 4.29926 37.0453 4.38158L36.3341 4.45364C36.2879 4.4591 36.2452 4.46128 36.1981 4.46128C35.3906 4.46158 34.7172 3.70327 34.6475 2.71534Z" fill="white" fill-opacity="0.4"/>
</g>
<defs>
<clipPath id="clip0_6_3">
<rect width="378" height="143" fill="white" transform="translate(-307 -38)"/>
</clipPath>
</defs>
</svg>
